# xmcd
#
# Track frame offsets:
#	150
#	12534
#	24731
#	38897
#	50883
#	63107
#	76607
#	87728
#	100225
#	112321
#	124668
#	136622
#	149432
#	162406
#	174076
#	186387
#	199878
#	211730
#	224682
#	236128
#	250291
#	263461
#
# Disc length: 3656 seconds
# Revision: 0
# Processed by: cddbd v1.5.2PL0 Copyright (c) Steve Scherf et al.
# Submitted via: dBpowerAMP V12.0
#
DISCID=450e4616
DTITLE=Bob Atcher - Hunters of Kentucky
DYEAR=2003
DGENRE=Cowboy Western
TTITLE0=Down with the Feminine Gender
TTITLE1=Long Gone Baby
TTITLE2=Never Trust A Woman
TTITLE3=Chain Around My Heart
TTITLE4=One Kind Word
TTITLE5=My Pillow Knows
TTITLE6=Peek A Boo
TTITLE7=Don't Give Your Heart To Someone Else
TTITLE8=Walking The Floor Over You
TTITLE9=Let's Start Life All Over
TTITLE10=I'm Reading Your Letter Again Dear
TTITLE11=On Account Of You
TTITLE12=Wasted Tears
TTITLE13=Time Will Tell
TTITLE14=In My Heart
TTITLE15=Methodist Pie
TTITLE16=Smoke Comes Out My Chimney
TTITLE17=Ain't You Ashamed
TTITLE18=Christmas Island
TTITLE19=Hunters Of Kentucky
TTITLE20=De Ladies Man
TTITLE21=The Old Chisholm Trail
EXTD=
EXTT0=
EXTT1=
EXTT2=
EXTT3=
EXTT4=
EXTT5=
EXTT6=
EXTT7=
EXTT8=
EXTT9=
EXTT10=
EXTT11=
EXTT12=
EXTT13=
EXTT14=
EXTT15=
EXTT16=
EXTT17=
EXTT18=
EXTT19=
EXTT20=
EXTT21=
PLAYORDER=
